# xmcd
#
# Track frame offsets:
# 150
# 17885
# 22880
# 38074
# 51346
# 54397
# 71707
# 89987
# 91573
# 104713
# 117907
# 124511
# 142857
# 159499
# 198581
# 212556
# 233531
# 254508
# 267682
# 278415
#
# Disc length: 3950 seconds
#
# Revision: 0
# Processed by: cddbd v1.5.1PL2 Copyright (c) Steve Scherf et al.
# Submitted via: Audion 3.0.2 (http://www.panic.com/audion/)
#
DISCID=1b0f6c14
DTITLE=direct - calm 3014
DYEAR=1900
DGENRE=
TTITLE0=w
TTITLE1=w
TTITLE2=w
TTITLE3=w
TTITLE4=w
TTITLE5=w
TTITLE6=w
TTITLE7=w
TTITLE8=w
TTITLE9=w
TTITLE10=w
TTITLE11=w
TTITLE12=w
TTITLE13=w
TTITLE14=w
TTITLE15=w
TTITLE16=w
TTITLE17=w
TTITLE18=w
TTITLE19=w
EXTD=
EXTT0=
EXTT1=
EXTT2=
EXTT3=
EXTT4=
EXTT5=
EXTT6=
EXTT7=
EXTT8=
EXTT9=
EXTT10=
EXTT11=
EXTT12=
EXTT13=
EXTT14=
EXTT15=
EXTT16=
EXTT17=
EXTT18=
EXTT19=
PLAYORDER=
